<?xml version="1.0" encoding="UTF-8"?>
<svg width="800" height="600" viewBox="0 0 800 600" fill="none" xmlns="http://www.w3.org/2000/svg">
    <!-- Background Elements -->
    <circle cx="400" cy="300" r="280" fill="#EEF2FF" opacity="0.5"/>
    <circle cx="400" cy="300" r="200" fill="#E0E7FF" opacity="0.3"/>
    
    <!-- Face Recognition Frame -->
    <rect x="250" y="100" width="300" height="400" rx="20" fill="white" stroke="#6366F1" stroke-width="3"/>
    
    <!-- Face Outline -->
    <circle cx="400" cy="250" r="100" fill="none" stroke="#6366F1" stroke-width="3" stroke-dasharray="8 4">
        <animate attributeName="stroke-dashoffset" values="100;0" dur="10s" repeatCount="indefinite"/>
    </circle>
    
    <!-- Face Elements -->
    <circle cx="350" cy="220" r="8" fill="#6366F1">
        <animate attributeName="r" values="6;8;6" dur="2s" repeatCount="indefinite"/>
    </circle>
    <circle cx="450" cy="220" r="8" fill="#6366F1">
        <animate attributeName="r" values="8;6;8" dur="2s" repeatCount="indefinite"/>
    </circle>
    
    <!-- Scanning Animation -->
    <line x1="250" y1="300" x2="550" y2="300" stroke="#818CF8" stroke-width="2">
        <animate attributeName="y1" values="100;500;100" dur="3s" repeatCount="indefinite"/>
        <animate attributeName="y2" values="100;500;100" dur="3s" repeatCount="indefinite"/>
    </line>
    
    <!-- Recognition Points -->
    <g id="facePoints">
        <circle cx="400" cy="280" r="2" fill="#818CF8"/>
        <circle cx="380" cy="300" r="2" fill="#818CF8"/>
        <circle cx="420" cy="300" r="2" fill="#818CF8"/>
        <circle cx="400" cy="320" r="2" fill="#818CF8"/>
        <circle cx="370" cy="270" r="2" fill="#818CF8"/>
        <circle cx="430" cy="270" r="2" fill="#818CF8"/>
        <animate attributeName="opacity" values="0.3;1;0.3" dur="2s" repeatCount="indefinite"/>
    </g>
    
    <!-- Security Elements -->
    <path d="M380 400L400 380L420 400L400 420Z" fill="#6366F1" opacity="0.8">
        <animate attributeName="opacity" values="0.6;1;0.6" dur="2s" repeatCount="indefinite"/>
    </path>
    
    <!-- Decorative Elements -->
    <circle cx="300" cy="150" r="10" fill="#818CF8" opacity="0.5"/>
    <circle cx="500" cy="450" r="10" fill="#818CF8" opacity="0.5"/>
    <circle cx="250" cy="350" r="5" fill="#6366F1" opacity="0.5"/>
    <circle cx="550" cy="250" r="5" fill="#6366F1" opacity="0.5"/>
    
    <!-- Connection Lines -->
    <g stroke="#818CF8" stroke-width="1" opacity="0.3">
        <line x1="300" y1="150" x2="350" y2="220"/>
        <line x1="500" y1="450" x2="450" y2="220"/>
        <line x1="250" y1="350" x2="380" y2="300"/>
        <line x1="550" y1="250" x2="420" y2="300"/>
    </g>
    
    <!-- Success Checkmark -->
    <g transform="translate(375 450)">
        <circle cx="25" cy="25" r="20" fill="#10B981" opacity="0.2"/>
        <path d="M15 25L22 32L35 18" stroke="#10B981" stroke-width="3" fill="none">
            <animate attributeName="stroke-dasharray" values="0,40;40,0" dur="1s" begin="0s" fill="freeze"/>
        </path>
    </g>
</svg> 